<svg width="135" height="135" viewBox="0 0 135 135" fill="none" xmlns="http://www.w3.org/2000/svg">
<rect x="51.0109" y="25.9429" width="32.9783" height="83.1143" rx="8" fill="#1ED7CB"/>
<rect x="25.943" y="83.9892" width="32.9783" height="83.1143" rx="8" transform="rotate(-90 25.943 83.9892)" fill="#1ED7CB"/>
<rect x="61.6113" y="23.1806" width="32.9783" height="83.1143" rx="8" transform="rotate(14.0738 61.6113 23.1806)" fill="#1ED7CB" fill-opacity="0.7"/>
<rect x="23.1805" y="73.3887" width="32.9783" height="83.1143" rx="8" transform="rotate(-75.9262 23.1805 73.3887)" fill="#1ED7CB" fill-opacity="0.7"/>
<rect x="72.729" y="23.0978" width="32.9783" height="83.1143" rx="8" transform="rotate(28.3588 72.729 23.0978)" fill="#1ED7CB" fill-opacity="0.4"/>
<rect x="23.0979" y="62.2709" width="32.9783" height="83.1143" rx="8" transform="rotate(-61.6412 23.0979 62.2709)" fill="#1ED7CB" fill-opacity="0.4"/>
<rect x="82.5503" y="25.4005" width="32.9783" height="83.1143" rx="8" transform="rotate(41.3143 82.5503 25.4005)" fill="#1ED7CB" fill-opacity="0.2"/>
<rect x="25.4003" y="52.4494" width="32.9783" height="83.1143" rx="8" transform="rotate(-48.6857 25.4003 52.4494)" fill="#1ED7CB" fill-opacity="0.2"/>
</svg>
